<?xml version="1.0" encoding="UTF-8" standalone="no"?>
<!-- Created with Inkscape (http://www.inkscape.org/) -->

<svg
   width="124.80859mm"
   height="111.36074mm"
   viewBox="0 0 124.8086 111.36074"
   version="1.1"
   id="svg9525"
   inkscape:version="1.1.2 (b8e25be833, 2022-02-05)"
   sodipodi:docname="veg1.svg"
   xmlns:inkscape="http://www.inkscape.org/namespaces/inkscape"
   xmlns:sodipodi="http://sodipodi.sourceforge.net/DTD/sodipodi-0.dtd"
   xmlns="http://www.w3.org/2000/svg"
   xmlns:svg="http://www.w3.org/2000/svg">
  <sodipodi:namedview
     id="namedview9527"
     pagecolor="#ffffff"
     bordercolor="#666666"
     borderopacity="1.0"
     inkscape:pageshadow="2"
     inkscape:pageopacity="0.0"
     inkscape:pagecheckerboard="0"
     inkscape:document-units="mm"
     showgrid="false"
     inkscape:zoom="1.2810466"
     inkscape:cx="315.75745"
     inkscape:cy="256.04065"
     inkscape:window-width="1920"
     inkscape:window-height="1017"
     inkscape:window-x="-8"
     inkscape:window-y="-8"
     inkscape:window-maximized="1"
     inkscape:current-layer="g1106"
     fit-margin-top="0"
     fit-margin-left="0"
     fit-margin-right="0"
     fit-margin-bottom="0" />
  <defs
     id="defs9522" />
  <g
     inkscape:label="Layer 1"
     inkscape:groupmode="layer"
     id="layer1"
     transform="translate(-3.9148428,-6.3672584)">
    <g
       id="g1106"
       style="fill:#000000;fill-opacity:0;stroke:#46ff90;stroke-opacity:1"
       transform="matrix(1.880138,0,0,1.9701296,-432.27828,-4279.2988)"
       inkscape:export-filename="C:\Users\User\Documents\ZW\Inkscape\treemo\veg1.png"
       inkscape:export-xdpi="96"
       inkscape:export-ydpi="96">
      <g
         id="g9649"
         style="stroke:#46ff90;stroke-width:1.0002;stroke-linecap:round;stroke-miterlimit:4;stroke-dasharray:none;stroke-opacity:1;paint-order:stroke fill markers"
         transform="matrix(0.61774785,0,0,0.61774785,88.682723,831.52147)">
        <path
           style="fill:#000000;fill-opacity:0;stroke:#46ff90;stroke-width:1.0002;stroke-linecap:round;stroke-linejoin:miter;stroke-miterlimit:4;stroke-dasharray:none;stroke-opacity:1;paint-order:stroke fill markers"
           d="m 257.4242,2202.1697 c 5.73814,3.4598 10.25133,6.6463 13.88595,12.4617 8.11895,12.9903 0.22292,28.9565 7.47705,42.0139 3.22198,5.7996 7.8858,9.6134 14.95411,9.6134 1.75498,0 5.6968,0.2697 5.6968,-1.7803"
           id="path949" />
        <path
           style="fill:#000000;fill-opacity:0;stroke:#46ff90;stroke-width:1.0002;stroke-linecap:round;stroke-linejoin:miter;stroke-miterlimit:4;stroke-dasharray:none;stroke-opacity:1;paint-order:stroke fill markers"
           d="m 257.4242,2202.1697 c 4.15392,-1.1868 8.19705,-4.2504 12.46175,-3.5605 4.58275,0.7413 8.26866,4.4056 11.74965,7.477 2.86644,2.5292 9.236,11.6005 9.96941,16.7344 0.62921,4.4045 -1.4123,-3.1628 0.7121,4.2726 1.05826,3.7039 2.1363,7.5156 2.1363,11.3936 0,3.5415 0.004,7.1649 0.35605,10.6815 0.3227,3.2271 1.4242,6.4294 1.4242,9.6133 0,1.6363 3.20444,7.5583 3.20445,5.6968"
           id="path951" />
        <path
           style="fill:#000000;fill-opacity:0;stroke:#46ff90;stroke-width:1.0002;stroke-linecap:round;stroke-linejoin:miter;stroke-miterlimit:4;stroke-dasharray:none;stroke-opacity:1;paint-order:stroke fill markers"
           d="m 299.43811,2264.4784 c -2.25773,-2.2827 -3.27756,-5.3641 -4.62865,-8.1891 -1.99297,-4.1671 -4.85434,-8.6195 -6.05285,-13.1739 -2.4239,-9.2108 -0.55065,-23.9947 3.20445,-32.7566 2.82031,-6.5807 16.96372,-27.6692 13.5299,-34.5368 9.30572,10.0325 10.32545,23.6483 10.32545,36.6731 0,3.9429 0.26336,8.4494 -1.4242,12.1057 -1.35805,2.9425 -4.18676,5.5766 -6.05285,8.1892 -0.99216,1.389 -1.02661,2.5349 -1.78025,3.9165 -2.1221,3.8905 -5.19606,7.566 -6.76495,11.7497 -1.12901,3.0107 -1.47591,7.0634 -1.06815,10.3254 0.28485,2.2788 1.16994,3.4077 0.7121,5.6968 z"
           id="path955" />
        <path
           style="fill:#000000;fill-opacity:0;stroke:#46ff90;stroke-width:1.0002;stroke-linecap:round;stroke-linejoin:miter;stroke-miterlimit:4;stroke-dasharray:none;stroke-opacity:1;paint-order:stroke fill markers"
           d="m 299.43811,2264.4784 c 4.53907,0.8273 9.25426,1.624 13.88595,1.0682 4.0799,-0.4896 8.08288,-1.3153 11.3936,-3.9166 6.19756,-4.8695 9.67771,-15.4409 7.47705,-23.1432 -0.99972,-3.4991 -1.97431,-7.5932 -3.20445,-11.0376 -1.1139,-3.1189 -2.69342,-6.2916 -3.20445,-9.6133 -0.5536,-3.5984 -0.7121,-7.7388 -0.7121,-11.3936 0,-2.9148 -0.69298,-8.9204 1.4242,-11.0376 -3.29703,3.7574 -5.18599,9.6137 -6.05285,14.5981 -0.17368,0.9987 0.0868,3.9513 0,5.3407 -0.30152,4.8244 -0.0281,9.81 -0.7121,14.5981 -0.4822,3.3754 -1.83544,6.3288 -2.49235,9.6133 -0.16458,0.823 -0.0548,1.7091 -0.35605,2.4924 -0.88118,2.291 -2.87365,5.366 -4.62865,7.121 -3.80476,3.8047 -14.53632,8.4362 -12.8178,15.3101 z"
           id="path959" />
        <path
           style="fill:#000000;fill-opacity:0;stroke:#46ff90;stroke-width:1.0002;stroke-linecap:round;stroke-linejoin:miter;stroke-miterlimit:4;stroke-dasharray:none;stroke-opacity:1;paint-order:stroke fill markers"
           d="m 299.43811,2264.4784 c 1.06815,-0.356 2.24711,-0.4755 3.20445,-1.0681 4.88041,-3.0212 17.68546,-15.1734 17.0904,-21.7191 -0.4408,-4.8487 -3.62564,-8.4899 -6.05285,-12.4617 -2.22837,-3.6464 -3.97112,-7.6465 -6.05285,-11.3936 -5.47046,-9.8468 -16.73435,-29.3662 -16.73435,-40.9458"
           id="path965" />
        <path
           style="fill:#000000;fill-opacity:0;stroke:#46ff90;stroke-width:1.0002;stroke-linecap:round;stroke-linejoin:miter;stroke-miterlimit:4;stroke-dasharray:none;stroke-opacity:1;paint-order:stroke fill markers"
           d="m 290.89291,2176.8901 c -7.06377,7.7261 -10.3376,17.8906 -11.74966,28.128 -2.49481,18.0874 -0.77259,32.7289 11.74966,46.6425 2.15388,2.3932 4.80718,4.8072 7.121,7.121 2.85382,2.8539 3.67696,2.6932 1.4242,5.6968"
           id="path971" />
        <path
           style="fill:#000000;fill-opacity:0;stroke:#46ff90;stroke-width:1.0002;stroke-linecap:round;stroke-linejoin:miter;stroke-miterlimit:4;stroke-dasharray:none;stroke-opacity:1;paint-order:stroke fill markers"
           d="m 299.43811,2264.4784 c -3.08577,-7.121 -4.28153,-15.4071 -9.2573,-21.363 -6.98679,-8.3629 -21.54599,-7.943 -31.33241,-7.477 -3.71817,0.177 -8.33635,0.9359 -12.1057,0.356 -0.80662,-0.1241 -4.46272,-2.0577 -4.62865,-2.1363 -4.52725,-2.1445 -6.41554,-3.5671 -9.61336,-6.7649"
           id="path973" />
        <path
           style="fill:#000000;fill-opacity:0;stroke:#46ff90;stroke-width:1.0002;stroke-linecap:round;stroke-linejoin:miter;stroke-miterlimit:4;stroke-dasharray:none;stroke-opacity:1;paint-order:stroke fill markers"
           d="m 232.50069,2227.0932 c 1.26568,15.799 15.9474,26.7499 30.97636,28.484 7.28767,0.8409 14.26379,-0.3495 21.36301,1.7802 2.71533,0.8146 5.83233,1.9893 8.18915,3.5605 2.00237,1.335 4.22884,3.5606 6.4089,3.5605"
           id="path975" />
        <path
           style="fill:#000000;fill-opacity:0;stroke:#46ff90;stroke-width:1.0002;stroke-linecap:round;stroke-linejoin:miter;stroke-miterlimit:4;stroke-dasharray:none;stroke-opacity:1;paint-order:stroke fill markers"
           d="m 232.50069,2227.0932 c 6.96485,9.2864 3.90436,7.3604 16.37831,12.8178 4.54657,1.9891 9.12861,2.4115 13.88595,3.2044 5.58319,0.9306 15.88752,3.0655 21.00695,5.3408 5.41597,2.4071 9.5786,7.2469 12.81781,12.1057 1.00516,1.5077 2.3973,3.0143 3.20445,4.6286 0.16784,0.3357 0.47473,1.4242 0.35605,1.0682 -0.20211,-0.6064 -0.47473,-1.1869 -0.7121,-1.7803"
           id="path977" />
        <path
           style="fill:#000000;fill-opacity:0;stroke:#46ff90;stroke-width:1.0002;stroke-linecap:round;stroke-linejoin:miter;stroke-miterlimit:4;stroke-dasharray:none;stroke-opacity:1;paint-order:stroke fill markers"
           d="m 257.4242,2202.1697 c 8.16483,1.4845 9.20687,0.8777 16.73435,6.0528 6.92284,4.7595 9.28693,25.9911 9.9694,34.1808 0.30107,3.6128 -0.0904,7.5618 1.06816,11.0376 2.09016,6.2705 7.45184,6.0402 11.74965,8.1891 1.12842,0.5642 1.68468,1.8792 2.49235,2.8484"
           id="path979" />
        <path
           style="fill:#000000;fill-opacity:0;stroke:#46ff90;stroke-width:1.0002;stroke-linecap:round;stroke-linejoin:miter;stroke-miterlimit:4;stroke-dasharray:none;stroke-opacity:1;paint-order:stroke fill markers"
           d="m 290.89291,2176.8901 c -4.07722,23.444 0.98458,-7.793 -1.78025,17.0904 -0.26732,2.4059 -1.06946,4.7265 -1.4242,7.121 -0.29019,1.9588 -0.0932,4.0813 -0.35605,6.0529 -1.40066,10.5049 -1.60639,20.1871 0.7121,30.6203 1.06166,4.7775 2.9024,10.3309 5.34075,14.598 1.53895,2.6932 6.38456,6.0042 7.121,7.4771 0.70813,1.4162 -0.68411,3.0925 -1.06815,4.6286"
           id="path981" />
        <path
           style="fill:#000000;fill-opacity:0;stroke:#46ff90;stroke-width:1.0002;stroke-linecap:round;stroke-linejoin:miter;stroke-miterlimit:4;stroke-dasharray:none;stroke-opacity:1;paint-order:stroke fill markers"
           d="m 305.49096,2175.822 c 4.59655,5.7861 4.2726,18.1128 4.2726,25.9916 0,10.8669 -4.51562,21.1916 -6.76495,31.6885 -0.51765,2.4157 -1.50681,4.66 -1.78025,7.121 -0.62717,5.6445 -1.4242,11.3857 -1.4242,17.0904 0,0.9663 0.37806,7.4991 -0.35605,6.7649"
           id="path983" />
        <path
           style="fill:#000000;fill-opacity:0;stroke:#46ff90;stroke-width:1.0002;stroke-linecap:round;stroke-linejoin:miter;stroke-miterlimit:4;stroke-dasharray:none;stroke-opacity:1;paint-order:stroke fill markers"
           d="m 326.49791,2195.4047 c -0.70001,3.3089 -2.4308,6.3254 -3.20445,9.6134 -0.69111,2.9372 -1.12336,6.2489 -1.4242,9.2573 -0.54149,5.4149 -2.89645,11.1533 -1.78025,16.7343 0.82316,4.1158 2.50213,9.1987 1.78025,13.5299 -0.0741,0.4444 -0.97211,1.5402 -1.06815,1.7803 -3.06079,7.652 -7.22041,9.307 -14.242,12.8178 -1.42206,0.711 -4.62865,3.2518 -4.62865,4.9847 0,0.2654 -0.0907,0.7121 -0.35605,0.7121 -0.72193,0 -1.4242,-0.2374 -2.1363,-0.3561"
           id="path985" />
        <path
           style="fill:#000000;fill-opacity:0;stroke:#46ff90;stroke-width:1.0002;stroke-linecap:round;stroke-linejoin:miter;stroke-miterlimit:4;stroke-dasharray:none;stroke-opacity:1;paint-order:stroke fill markers"
           d="m 236.41725,2208.9346 c 2.84592,-0.2846 6.5299,-0.8464 9.2573,0 1.73021,0.537 3.1097,1.8611 4.62865,2.8484 8.55508,5.5608 13.72257,13.961 19.58275,22.0751 2.56914,3.5573 5.65788,9.2776 9.2573,12.1057 3.12216,2.4532 7.03448,3.6171 10.68151,4.9847"
           id="path993" />
        <path
           style="fill:#000000;fill-opacity:0;stroke:#46ff90;stroke-width:1.0002;stroke-linecap:round;stroke-linejoin:miter;stroke-miterlimit:4;stroke-dasharray:none;stroke-opacity:1;paint-order:stroke fill markers"
           d="m 299.43811,2264.4784 c 4.03881,-4.5058 0.0317,-9.8304 1.06815,-14.598 3.27088,-15.0461 22.46626,-21.103 30.97635,-32.0445 4.66524,-5.9982 4.65669,-8.2957 6.40891,-14.9541"
           id="path1003" />
        <path
           style="fill:#000000;fill-opacity:0;stroke:#46ff90;stroke-width:1.0002;stroke-linecap:round;stroke-linejoin:miter;stroke-miterlimit:4;stroke-dasharray:none;stroke-opacity:1;paint-order:stroke fill markers"
           d="m 299.43811,2264.4784 c 9.31555,-0.7165 26.18503,-1.2613 31.68845,-8.1891 6.5532,-8.2493 5.22207,-20.4136 7.83311,-30.6203"
           id="path1005" />
        <path
           style="fill:#000000;fill-opacity:0;stroke:#46ff90;stroke-width:1.0002;stroke-linecap:round;stroke-linejoin:miter;stroke-miterlimit:4;stroke-dasharray:none;stroke-opacity:1;paint-order:stroke fill markers"
           d="m 291.96106,2262.3421 c -13.28869,-5.5369 -2.73531,-1.649 -33.46871,-4.2726"
           id="path1007" />
      </g>
    </g>
  </g>
</svg>
