<?xml version="1.0" encoding="UTF-8" standalone="no"?>
<!-- Created with Inkscape (http://www.inkscape.org/) -->

<svg
   width="175.02454mm"
   height="60.770412mm"
   viewBox="0 0 175.02454 60.770412"
   version="1.1"
   id="svg5"
   inkscape:version="1.1.2 (b8e25be833, 2022-02-05)"
   sodipodi:docname="veg2.svg"
   xmlns:inkscape="http://www.inkscape.org/namespaces/inkscape"
   xmlns:sodipodi="http://sodipodi.sourceforge.net/DTD/sodipodi-0.dtd"
   xmlns="http://www.w3.org/2000/svg"
   xmlns:svg="http://www.w3.org/2000/svg">
  <sodipodi:namedview
     id="namedview7"
     pagecolor="#ffffff"
     bordercolor="#666666"
     borderopacity="1.0"
     inkscape:pageshadow="2"
     inkscape:pageopacity="0.0"
     inkscape:pagecheckerboard="false"
     inkscape:document-units="mm"
     showgrid="true"
     inkscape:snap-grids="false"
     inkscape:zoom="0.70710678"
     inkscape:cx="572.04939"
     inkscape:cy="-16.970563"
     inkscape:window-width="1920"
     inkscape:window-height="1017"
     inkscape:window-x="-8"
     inkscape:window-y="-8"
     inkscape:window-maximized="1"
     inkscape:current-layer="layer1"
     fit-margin-top="0"
     fit-margin-left="0"
     fit-margin-right="0"
     fit-margin-bottom="0">
    <inkscape:grid
       type="xygrid"
       id="grid857"
       originx="-2.4178308"
       originy="-2.226315" />
  </sodipodi:namedview>
  <defs
     id="defs2" />
  <g
     inkscape:label="Layer 1"
     inkscape:groupmode="layer"
     id="layer1"
     transform="translate(-2.4178303,-2.226315)">
    <g
       id="g3473"
       transform="matrix(-2.0059505,-1.4621411,1.4621411,-2.0059505,43.181484,74.386659)"
       style="stroke-linecap:round;paint-order:stroke fill markers">
      <path
         style="fill:none;stroke:#46ff90;stroke-width:0.265;stroke-linecap:round;stroke-linejoin:miter;stroke-miterlimit:4;stroke-dasharray:none;stroke-opacity:1;paint-order:stroke fill markers"
         d="m 10.980208,4.8617187 c 1.041998,0.2298697 2.060853,0.1984375 3.108854,0.1984375 0.182648,0 0.412251,-0.036612 0.595313,0 0.203111,0.040622 0.420342,0.053908 0.628385,0.066146 0.35981,0.021167 0.733319,-0.039788 1.091406,0 0.257154,0.028573 0.06164,0.047357 0.231511,0.1322917 0.153276,0.076638 0.508727,0.1453507 0.694531,0.1984375 0.244636,0.069896 0.47627,0.066146 0.727604,0.066146 0.0441,0 0.101111,-0.031181 0.132292,0 0.219171,0.2191711 0.0946,0.6522233 0.198437,0.8598958 0.09431,0.1886199 0.165365,0.3131339 0.165365,0.5291667"
         id="path1332" />
      <path
         style="fill:none;stroke:#46ff90;stroke-width:0.265;stroke-linecap:round;stroke-linejoin:miter;stroke-miterlimit:4;stroke-dasharray:none;stroke-opacity:1;paint-order:stroke fill markers"
         d="m 9.5911457,5.1924479 c 0.3197048,0.2425348 0.6281583,0.5006628 0.9591143,0.7276041 0.239628,0.1643158 0.763866,0.2827139 1.058334,0.4299479 0.254433,0.127217 0.526358,0.3077443 0.79375,0.396875 0.365112,0.1217041 0.758784,0.1270262 1.124479,0.2315104 0.03822,0.010919 0.06151,0.053576 0.09922,0.066146 0.340697,0.1135652 0.770708,0.096915 1.12448,0.1322916 0.196364,0.019637 0.398539,-0.015137 0.595312,0 0.228426,0.017571 0.437166,0.078829 0.661458,0.099219 0.477375,0.043398 0.975051,0 1.455209,0 0.331524,0 0.481478,-0.1084477 0.79375,-0.2645834 0.09952,-0.049759 0.08837,-0.2369335 0.09922,-0.2315104 0.0711,0.035552 0.132291,0.088195 0.198437,0.132292"
         id="path1334" />
      <path
         style="fill:none;stroke:#46ff90;stroke-width:0.265;stroke-linecap:round;stroke-linejoin:miter;stroke-miterlimit:4;stroke-dasharray:none;stroke-opacity:1;paint-order:stroke fill markers"
         d="M 5.0270833,6.713802 C 4.3494084,6.0361271 3.1777212,5.826276 2.6789062,4.8286458 2.638227,4.7472872 2.4261347,4.298593 2.5135416,4.2002604 2.6845257,4.0079033 2.8663193,3.8254339 3.0427083,3.6380208 3.7217048,3.7679915 4.1692881,4.4002733 4.6963542,4.7955729 5.0691755,5.0751889 5.6693147,5.3779206 6.0854167,5.55625 6.374167,5.6800001 6.6324588,5.7557587 6.8791666,5.953125 c 0.2889458,0.2311566 0.3345815,0.5753231 0.5622396,0.8598958 0.1832195,0.2290244 0.4277875,0.4608604 0.6283854,0.6614583 0.0403,0.0403 0.1250646,0.058919 0.1653646,0.099219 0.1312079,0.1312078 0.2298543,0.329073 0.3638021,0.4630208 0.1095623,0.1095623 0.319316,0.234537 0.396875,0.3638021 C 9.1302543,8.6245558 9.166742,8.948104 9.3265625,9.1611979 9.5319758,9.4350823 10.568182,8.8539307 10.748698,9.7565104 10.84847,10.255371 9.9813843,10.066069 9.7565104,10.021094 9.0630182,9.8823953 8.1316968,9.2892489 7.6398437,8.7973958 7.4748864,8.6324385 7.3411409,8.4325471 7.1768229,8.2682291 6.7696926,7.8610988 5.8441716,7.221565 5.2916667,6.9453125 5.1834292,6.8911938 5.1209281,6.7763653 5.0270833,6.713802 Z"
         id="path1336" />
      <path
         style="fill:none;stroke:#46ff90;stroke-width:0.274928;stroke-linecap:round;stroke-linejoin:miter;stroke-miterlimit:4;stroke-dasharray:none;stroke-opacity:1;paint-order:stroke fill markers"
         d="M 2.4610951,4.6625055 C 2.1634388,4.8760894 1.8088173,5.6821068 1.5213541,5.9112954 1.467469,5.9542568 1.4965987,6.05326 1.4882812,6.1248794 1.43972,6.5430223 1.6544733,6.8824356 1.8851562,7.192799 c 0.4177341,0.5620238 1.05156,0.6027241 1.6536458,0.8187383 0.7534053,0.2703038 1.5396268,0.4046114 2.2820313,0.7119464 0.1999276,0.082764 0.3791804,0.2377542 0.5622395,0.3559732 0.5439823,0.351302 0.7748053,1.0899231 1.2898438,1.4594901 0.1237382,0.08879 0.2595721,0.112832 0.396875,0.142389 0.2663549,0.05734 0.2349553,-0.02707 0.3307291,-0.284778 0.028852,-0.07764 0.1120757,-0.185908 0.066146,-0.284779 C 8.3361579,9.8308392 8.090355,9.6951982 7.8713541,9.5066247 7.5273804,9.2104416 7.1388041,8.9827563 6.713802,8.8302757 6.4978075,8.7527821 6.2609216,8.7129053 6.0523437,8.6166917 5.6301787,8.4219539 5.1480973,8.1458343 4.7624999,7.8691481 4.6815366,7.8110526 4.6129294,7.7084805 4.5309895,7.6555641 4.4795326,7.6223332 4.3641449,7.5827765 4.332552,7.5487721 4.2921507,7.505287 4.2505868,7.407926 4.2333333,7.3707855 4.1983895,7.2955633 4.0053379,7.2071868 3.935677,7.1572016 3.7897247,7.0524732 3.6849835,6.8517757 3.571875,6.7300337 3.2178532,6.3489901 2.7186194,6.1747708 2.4804687,5.6621142 2.4405807,5.5762489 2.4849178,4.7650696 2.4610951,4.6625055 Z"
         id="path1338"
         sodipodi:nodetypes="cssssssssssssssssssssc" />
      <path
         style="fill:none;stroke:#46ff90;stroke-width:0.265;stroke-linecap:round;stroke-linejoin:miter;stroke-miterlimit:4;stroke-dasharray:none;stroke-opacity:1;paint-order:stroke fill markers"
         d="m 7.9705728,10.715625 c 1.1485965,0.883314 1.4672368,1.626598 1.6867187,2.943489 0.014499,0.08699 -0.00732,0.176694 0,0.264584 0.062363,0.748351 0.099219,1.464146 0.099219,2.215885 0,0.227526 0.044763,0.503788 0,0.727604 -0.00426,0.02128 -0.020389,0.173071 -0.033073,0.198438 -0.079626,0.159251 -0.3683974,0.250797 -0.2976563,0.463021 0.1218864,0.365659 0.5886328,0.324049 0.8268228,0.562239 0.104699,0.1047 0.180693,0.519086 0.297656,0.694531 0.214153,0.321229 0.651997,0.382682 0.859896,0.694532 0.250161,0.375241 0.389467,1.04237 0.760677,1.289843 0.515127,0.343418 1.124635,0.423303 1.752865,0.297657 0.07944,-0.01589 0.157343,-0.11375 0.23151,-0.132292 0.167035,-0.04176 0.389022,-0.04882 0.56224,-0.06615 0.32042,-0.03204 0.51408,0.317964 0.859896,0.231511 0.115855,-0.02896 0.164097,-0.105074 0.264583,-0.165365 0.260234,-0.15614 0.554798,-0.236847 0.859896,-0.264583 0.697097,-0.06337 0.513587,0.419561 0.926041,0.694531 0.434908,0.289939 0.777488,0.373669 1.322917,0.264583 0.470849,-0.09417 0.733853,-0.330424 1.091406,-0.628385 0.191661,-0.159717 0.433096,-0.268361 0.595313,-0.463021 0.143746,-0.172495 0.111219,-0.387803 0.198437,-0.56224 0.06441,-0.128817 -0.01333,-0.489675 -0.06615,-0.595312 -0.05409,-0.108182 -0.161819,-0.187802 -0.198437,-0.297656 -0.09905,-0.297158 0.33209,-0.434713 0.396875,-0.661459 0.05456,-0.19095 0.0844,-0.555382 0.03307,-0.760677 -0.06664,-0.26657 -0.243298,-0.498383 -0.330729,-0.760677 -0.07639,-0.229177 -0.07451,-0.531358 -0.231511,-0.727604 -0.142865,-0.178582 -0.493113,-0.22555 -0.595312,-0.429948 -0.08362,-0.167232 -0.207322,-0.361824 -0.264584,-0.562239 -0.05703,-0.199613 -0.07748,-0.446948 -0.198437,-0.628386 -0.262823,-0.394235 -0.96027,-0.284658 -1.35599,-0.363802 -0.430137,-0.08603 -0.787953,-0.461089 -1.190625,-0.595312 -0.212706,-0.0709 -0.469461,-0.151298 -0.694531,-0.165365 -0.201741,-0.01261 -0.474715,-0.0058 -0.661458,-0.09922 -0.208604,-0.104302 -0.348824,-0.272338 -0.56224,-0.363802 -0.356574,-0.152817 0.05301,0.04822 -0.23151,-0.03307 -0.2805,-0.08014 -0.589886,-0.227634 -0.826823,-0.396875 C 13.378919,12.192758 12.924573,11.802409 12.43541,11.4763 12.334903,11.4093 12.069492,11.17547 12.005462,11.079425 11.901414,10.923354 11.805709,10.560406 11.64166,10.45104 11.388348,10.282166 11.069656,10.110546 10.880982,9.9218729"
         id="path1348" />
      <path
         style="fill:none;stroke:#46ff90;stroke-width:0.265;stroke-linecap:round;stroke-linejoin:miter;stroke-miterlimit:4;stroke-dasharray:none;stroke-opacity:1;paint-order:stroke fill markers"
         d="m 11.178646,9.2934895 c 0.09568,0.4070704 0.18177,0.9755205 0.463021,1.2567705"
         id="path1350" />
      <path
         style="fill:none;stroke:#46ff90;stroke-width:0.265;stroke-linecap:round;stroke-linejoin:miter;stroke-miterlimit:4;stroke-dasharray:none;stroke-opacity:1;paint-order:stroke fill markers"
         d="m 18.818489,14.155208 c 1.524875,-0.331374 1.707679,0.183376 2.645834,0.496094 0.08624,0.02875 0.181025,0.03034 0.264583,0.06615 0.229204,0.09823 0.439787,0.222126 0.694531,0.264583 0.275355,0.04589 0.549088,0.03307 0.826823,0.03307 0.296856,0 0.691841,0.04589 0.959115,-0.132292 0.0823,-0.05487 0.128204,-0.19435 0.198437,-0.264583 0.587122,-0.587122 -0.16671,-1.511526 -0.661458,-1.951302 -0.135957,-0.12085 -0.359574,-0.241705 -0.463021,-0.396875 -0.153932,-0.230899 -0.374414,-0.396257 -0.529167,-0.628385 -0.06641,-0.09962 -0.09224,-0.233228 -0.165364,-0.33073 -0.221876,-0.295834 -0.687565,-0.856025 -0.992188,-1.02526 -0.164328,-0.09129 -0.38769,-0.150949 -0.562239,-0.23151 C 20.931319,10.006602 20.844396,9.9246945 20.736718,9.888802 20.499984,9.8098905 20.221566,9.7664136 19.976041,9.6572915 19.629751,9.5033847 19.284409,9.4182376 18.917708,9.3265624 18.769461,9.2895006 18.596036,9.2053692 18.454687,9.1611978 17.993313,9.0170184 17.502753,8.9389766 17.032552,8.8304686 16.79394,8.7754043 16.520566,8.6569004 16.271875,8.6320311 c -0.243129,-0.024313 -0.486082,-0.035956 -0.727604,-0.066146 -0.182081,-0.022759 -0.382639,0.03592 -0.56224,0 C 14.570819,8.483643 14.160632,8.373864 13.72526,8.301302 13.65049,8.28884 13.567994,8.31615 13.49375,8.301302 13.061797,8.2149113 12.395789,8.0117571 12.005469,7.8382812 11.825016,7.7580801 11.6828,7.6273373 11.509375,7.5406249 11.322613,7.4472442 10.550665,7.1768228 10.351823,7.1768228"
         id="path1352" />
      <path
         style="fill:none;stroke:#46ff90;stroke-width:0.265;stroke-linecap:round;stroke-linejoin:miter;stroke-miterlimit:4;stroke-dasharray:none;stroke-opacity:1;paint-order:stroke fill markers"
         d="m 12.402344,8.1359374 c 1.047309,0.4630208 2.098441,0.9174874 3.141927,1.3890625 0.694158,0.3137064 1.344024,0.7573331 1.984375,1.1575521 0.538454,0.336534 1.10916,0.641701 1.620573,1.02526 0.231123,0.173343 0.415395,0.398198 0.661458,0.56224 0.967729,0.645153 3.180357,1.631288 3.671094,2.61276 0.0242,0.0484 0.0099,0.11896 0.03307,0.165365 0.09068,0.181357 0.309357,0.356678 0.529167,0.429948 0.109082,0.03636 0.266587,0.03508 0.330729,0.09922 0.117404,0.117403 0.290489,0.576573 0.198438,0.760677 -0.04514,0.09028 -0.165796,0.166657 -0.198438,0.264583 -0.02395,0.07186 -0.01711,0.104921 -0.09922,0.132292 -0.0802,0.02673 -0.211022,0 -0.297657,0 -0.656793,0 -0.778314,-0.719887 -1.322916,-0.992188 -0.13679,-0.0684 -0.320191,-0.03574 -0.463021,-0.09922 -0.287699,-0.127866 -0.467009,-0.393627 -0.760677,-0.529166 -0.03003,-0.01386 -0.06713,0.008 -0.09922,0 -0.214506,-0.05363 -0.379311,-0.205674 -0.595313,-0.264584 -0.129518,-0.03532 -0.238197,-0.01214 -0.363802,-0.03307 -0.196503,-0.03275 -0.408434,-0.130481 -0.595312,-0.198437 -0.361406,-0.13142 -0.564811,-0.46302 -0.959115,-0.463021"
         id="path1354" />
      <path
         style="fill:none;stroke:#46ff90;stroke-width:0.265;stroke-linecap:round;stroke-linejoin:miter;stroke-miterlimit:4;stroke-dasharray:none;stroke-opacity:1;paint-order:stroke fill markers"
         d="m 20.968229,18.024739 c 0.551215,0.07717 1.100337,0.17115 1.653646,0.231511 0.148652,0.01622 0.361766,-0.08192 0.496093,-0.132292 0.713422,-0.267533 0.923443,-1.367417 1.422136,-1.554427 0.35004,-0.131265 0.690812,-0.132292 1.058333,-0.132292 0.09586,0 0.408296,0.05853 0.496094,0 0.1526,-0.101734 0.295123,-0.25825 0.363802,-0.429948 0.137766,-0.344415 -0.317326,-1.224777 -0.529167,-1.521354 -0.114688,-0.160564 -0.347956,-0.333492 -0.396875,-0.529166 -0.03956,-0.158228 -0.05413,-0.360674 -0.03307,-0.529167 0.02309,-0.184746 0.375893,-0.814732 0.165365,-1.02526 -0.447551,-0.447552 -1.347094,-0.639131 -1.918229,-0.892969 -0.147097,-0.06538 -0.257601,-0.184999 -0.396875,-0.264583 -0.512043,-0.292596 -1.092383,-0.409202 -1.455208,-0.892969 -0.09008,-0.120111 -0.229466,-0.194347 -0.297657,-0.330729"
         id="path1356" />
      <path
         style="fill:none;stroke:#46ff90;stroke-width:0.265;stroke-linecap:round;stroke-linejoin:miter;stroke-miterlimit:4;stroke-dasharray:none;stroke-opacity:1;paint-order:stroke fill markers"
         d="m 18.553909,6.91224 c 3.38419,0.098424 3.938795,-0.1241795 5.953122,1.5544266 0.141141,0.1176181 0.775253,0.915109 0.628385,1.0252604 -0.08367,0.062751 -0.205841,0.049138 -0.297656,0.099219 -0.06197,0.033802 -0.105504,0.094879 -0.165364,0.1322917 -0.183277,0.1145476 -0.412367,0.1756923 -0.595313,0.2976563 -0.222931,0.14862 -0.03854,0.349999 -0.463021,0.562239 -0.472126,0.236063 -0.65762,0.231511 -1.190625,0.231511 -0.109963,0 -0.48431,-0.264584 -0.330729,-0.264584"
         id="path1358" />
      <path
         style="fill:none;stroke:#46ff90;stroke-width:0.265;stroke-linecap:round;stroke-linejoin:miter;stroke-miterlimit:4;stroke-dasharray:none;stroke-opacity:1;paint-order:stroke fill markers"
         d="m 25.532291,9.0289061 c 0.385851,0.022048 0.771702,0.044097 1.157552,0.066146 0.01183,0.00587 0.09413,-0.010184 0.09922,0 0.139806,0.2796108 -0.474231,0.6446435 -0.330729,0.8598958 0.07098,0.1064701 0.168018,0.1256911 0.23151,0.2315101 0.08492,0.14153 0.0833,0.279278 0.03307,0.429948 -0.16927,0.507807 -0.803963,0.317165 -1.223698,0.363802 -0.492917,0.05477 -0.818996,0.347198 -1.355989,0.264584 -0.435824,-0.06705 -0.898547,-0.300446 -1.289844,-0.496094 -0.0476,-0.0238 -0.214093,-0.129026 -0.23151,-0.132292 -0.174717,-0.03276 -0.352778,-0.0441 -0.529167,-0.06615"
         id="path1360" />
      <path
         style="fill:none;stroke:#46ff90;stroke-width:0.265;stroke-linecap:round;stroke-linejoin:miter;stroke-miterlimit:4;stroke-dasharray:none;stroke-opacity:1;paint-order:stroke fill markers"
         d="m 25.962239,13.096875 c 0.264584,0.264583 0.519555,0.53914 0.79375,0.79375 0.121455,0.11278 0.377955,0.204098 0.529167,0.264583 0.107511,0.04301 0.229677,0.126791 0.264583,0.231511 0.09926,0.297763 -0.471559,0.36807 -0.661458,0.46302 -0.01749,0.0087 -0.118756,0.171366 -0.132292,0.198438 -0.04559,0.09119 -0.04045,0.635765 -0.06615,0.661458 -0.0105,0.0105 -0.139184,0.01998 -0.165364,0.03307"
         id="path1362" />
      <path
         style="fill:none;stroke:#46ff90;stroke-width:0.265;stroke-linecap:round;stroke-linejoin:miter;stroke-miterlimit:4;stroke-dasharray:none;stroke-opacity:1;paint-order:stroke fill markers"
         d="m 18.421614,5.9531249 c 0.463021,0.07717 0.926042,0.1543402 1.389063,0.2315104 0.01103,0.011025 0.0261,0.019129 0.03307,0.033073 0.104179,0.208358 -0.297881,0.7276041 0.264583,0.7276041"
         id="path1366" />
      <path
         style="fill:none;stroke:#46ff90;stroke-width:0.265;stroke-linecap:round;stroke-linejoin:miter;stroke-miterlimit:4;stroke-dasharray:none;stroke-opacity:1;paint-order:stroke fill markers"
         d="m 16.966406,7.2760416 c 2.351103,0.2102585 3.407761,0.3097228 4.861719,1.5213541 0.07953,0.066276 0.175217,0.1090719 0.23151,0.1653646"
         id="path1368" />
      <path
         style="fill:none;stroke:#46ff90;stroke-width:0.265;stroke-linecap:round;stroke-linejoin:miter;stroke-miterlimit:4;stroke-dasharray:none;stroke-opacity:1;paint-order:stroke fill markers"
         d="m 10.054167,7.7721353 c 1.623203,1.0000485 4.683688,2.1482619 6.449218,3.7372397 0.193205,0.173884 0.362217,0.39529 0.529167,0.562239"
         id="path1372" />
      <path
         style="fill:none;stroke:#46ff90;stroke-width:0.265;stroke-linecap:round;stroke-linejoin:miter;stroke-miterlimit:4;stroke-dasharray:none;stroke-opacity:1;paint-order:stroke fill markers"
         d="m 7.9705728,10.715625 c 1.7969616,1.5875 3.6091662,3.157911 5.3908852,4.7625 0.232858,0.209708 0.38276,0.497339 0.595313,0.727604 0.376989,0.408405 0.798228,0.799262 1.223698,1.157552 0.494422,0.416356 1.153133,0.756258 1.5875,1.190625"
         id="path1374" />
      <path
         style="fill:none;stroke:#46ff90;stroke-width:0.265;stroke-linecap:round;stroke-linejoin:miter;stroke-miterlimit:4;stroke-dasharray:none;stroke-opacity:1;paint-order:stroke fill markers"
         d="m 12.534635,14.783594 c 1.943467,-0.06317 2.94332,0.242452 4.431771,0.959114 0.251747,0.121212 0.509851,0.212195 0.694531,0.396875"
         id="path1376" />
      <path
         style="fill:none;stroke:#46ff90;stroke-width:0.265;stroke-linecap:round;stroke-linejoin:miter;stroke-miterlimit:4;stroke-dasharray:none;stroke-opacity:1;paint-order:stroke fill markers"
         d="m 4.4317708,4.1671874 c 0.077655,-0.4327059 0.2725147,-0.7752307 0.7276041,-0.6614583 0.2111058,0.052777 0.5612122,0.452691 0.7276042,0.5953125 0.2543254,0.2179931 0.5584439,0.3930793 0.79375,0.6283854 0.3335713,0.3335713 0.7165766,0.6592509 1.0914062,0.9591146 0.2896563,0.231725 0.663357,0.3403319 0.9921875,0.4960937 0.2578936,0.12216 0.506802,0.2699375 0.7606771,0.396875 0.168575,0.084288 0.5217331,0.1122225 0.6283851,0.2645834 0.07373,0.105324 0.132292,0.220486 0.198438,0.3307291"
         id="path1386" />
      <path
         style="fill:none;stroke:#46ff90;stroke-width:0.265;stroke-linecap:round;stroke-linejoin:miter;stroke-miterlimit:4;stroke-dasharray:none;stroke-opacity:1;paint-order:stroke fill markers"
         d="m 7.7059895,5.0601562 c 0.8589393,0.3391725 1.6075779,0.8917863 2.3812495,1.3559896 0.18658,0.1119478 0.370135,0.2346766 0.56224,0.3307291 0.06089,0.030446 0.137389,0.068694 0.198438,0.099219 0.0099,0.00493 0.04224,-0.00611 0.03307,0 -0.173071,0.115381 -0.352777,0.220486 -0.529166,0.3307291"
         id="path1390" />
      <path
         style="fill:none;stroke:#46ff90;stroke-width:0.264583px;stroke-linecap:round;stroke-linejoin:miter;stroke-opacity:1;paint-order:stroke fill markers"
         d="m 20.968229,18.024739 c -0.612804,-0.05259 -1.230398,-0.06497 -1.838413,-0.157771 -1.051552,-0.160505 -2.485418,-1.843493 -3.414368,-2.385381 -0.314659,-0.183551 -0.67439,-0.322103 -0.982215,-0.514494 C 14.429251,14.777105 14.132527,14.481485 13.844561,14.265511 13.043848,13.664976 12.198645,13.137052 11.365637,12.581713 10.875278,12.254807 10.458041,11.852852 9.9624715,11.505953 9.6550714,11.290773 9.3169675,11.002627 9.0738004,10.710826 8.8770604,10.474738 8.6616661,10.060423 8.3722177,9.9156992 8.042005,9.7505929 7.7532242,9.4250834 7.4367744,9.2141168 7.0505216,8.9566148 6.3405323,8.8662292 6.0336096,8.5593064"
         id="path2406" />
      <path
         style="fill:none;stroke:#46ff90;stroke-width:0.264583px;stroke-linecap:round;stroke-linejoin:miter;stroke-opacity:1;paint-order:stroke fill markers"
         d="M 2.1047475,7.7641796 C 2.0267939,7.9668591 1.9395567,8.1662078 1.8708867,8.3722177 1.822392,8.517702 2.0235343,8.6086311 2.0579753,8.7463952 2.3423489,9.8838894 4.1520459,9.5379629 5.0046217,9.822155 c 1.1667424,0.388914 1.5765701,0.754823 2.4789249,1.356393 0.2572586,0.171506 1.2858631,0.443964 1.3096208,0.467721"
         id="path2418" />
      <path
         style="fill:none;stroke:#46ff90;stroke-width:0.264583px;stroke-linecap:round;stroke-linejoin:miter;stroke-opacity:1;paint-order:stroke fill markers"
         d="m 25.962239,13.096875 c -0.866047,0.04152 -1.660253,-0.636978 -2.482611,-0.842567 -1.136929,-0.284232 -2.366464,-0.450801 -3.461141,-0.888671 -0.488972,-0.195589 -0.950593,-0.570357 -1.403165,-0.8419 C 18.283302,10.324525 17.882891,10.22768 17.539563,10.056016 17.329065,9.9507668 17.152855,9.7802074 16.931524,9.6818385 16.347499,9.422272 15.711008,9.2282276 15.10741,9.0270281 14.8248,8.9328248 14.899185,9.027716 14.592916,8.9334839 14.089929,8.7787185 12.815611,8.033749 12.402344,8.1359374"
         id="path2420" />
      <path
         style="fill:none;stroke:#46ff90;stroke-width:0.264583px;stroke-linecap:round;stroke-linejoin:miter;stroke-opacity:1;paint-order:stroke fill markers"
         d="M 25.532291,9.0289059 C 24.716543,12.031844 23.43726,8.7390842 22.403868,8.8867116 c -0.17769,0.025384 -0.333473,0.046772 -0.514494,0.046772 -0.07795,0 -0.311554,-0.00637 -0.233861,0 0.134609,0.011028 0.269415,0.019518 0.404122,0.029276"
         id="path2422" />
      <path
         style="fill:none;stroke:#46ff90;stroke-width:0.264583px;stroke-linecap:round;stroke-linejoin:miter;stroke-opacity:1;paint-order:stroke fill markers"
         d="M 10.980208,4.8617187 C 10.123962,4.7134084 9.3262623,4.6741164 8.4657622,4.8175333 7.9156466,4.9092191 7.4075249,5.0942573 6.9222807,4.770761 6.809597,4.6956387 6.6847981,4.7203672 6.5948755,4.6304445"
         id="path2934" />
    </g>
    <g
       id="g5571"
       transform="matrix(-1.3068963,2.1103829,-2.1103829,-1.3068963,193.28666,-27.667212)"
       style="stroke-linecap:round;paint-order:stroke fill markers">
      <path
         style="fill:none;stroke:#46ff90;stroke-width:0.264583px;stroke-linecap:round;stroke-linejoin:miter;stroke-opacity:1;paint-order:stroke fill markers"
         d="m 34.330769,17.305702 c -0.264038,-0.014 -2.271157,0.25454 -2.43215,0.09354 -0.255527,-0.255527 -1.532372,-0.63698 -2.057977,-0.374177 -0.156247,0.07812 -0.202062,0.31058 -0.280633,0.467721 -0.04918,0.09836 0,0.355363 0,0.467722 0,0.08871 -0.05649,0.504775 0,0.561266 0.634664,0.634663 1.59544,0.01556 1.964431,1.122532 0.0619,0.185715 0.280633,0.245708 0.280633,0.467722 0,0.493183 0.582385,0.863018 0.841898,1.122532 0.0986,0.0986 0.37418,0.326536 0.37418,0.187088 0,-0.06972 -0.165042,-0.0274 -0.18709,-0.09354 0,-0.425841 0.0441,-0.0053 -0.09354,-0.280633 -0.06701,-0.134013 -0.07845,-1.418255 0,-1.496709 0.35393,-0.353931 1.17734,-1.625695 1.590251,-2.245064 z"
         id="path3819" />
      <path
         style="fill:none;stroke:#46ff90;stroke-width:0.264583px;stroke-linecap:round;stroke-linejoin:miter;stroke-opacity:1;paint-order:stroke fill markers"
         d="m 32.834061,21.328108 c 2.849539,1.045539 5.420709,2.617297 8.231902,3.741773 2.314376,0.925751 4.523311,0.86755 6.92228,0.467722 0.733198,-0.1222 1.534314,0.09354 2.245064,0.09354 0.380439,0 1.368369,0.315429 1.683798,0 0.05933,-0.05934 -0.03894,-0.296293 0,-0.374177 0.02939,-0.05878 0.19042,-0.277301 0.09354,-0.374177 C 51.473274,24.345415 50.166552,24.538695 49.297862,24.321523 48.923794,24.228003 48.533586,24.066764 48.17533,23.947345 47.503881,23.723529 46.686093,23.206464 46.210896,22.731269 45.901482,22.421854 43.751703,21.506178 43.21748,21.328104 42.041574,20.936135 40.732101,20.833769 39.662795,20.299116 39.08182,20.00863 38.579207,19.688469 37.885451,19.457217 37.594613,19.360267 37.22989,19.269378 37.043552,19.08304 36.813235,18.852722 35.82775,18.709135 35.640388,18.521774 c -0.141645,-0.141646 -0.304951,-0.492041 -0.467723,-0.65481 -0.304639,-0.30464 -0.650391,-0.17825 -0.841896,-0.561266"
         id="path3821" />
      <path
         style="fill:none;stroke:#46ff90;stroke-width:0.264583px;stroke-linecap:round;stroke-linejoin:miter;stroke-opacity:1;paint-order:stroke fill markers"
         d="m 34.798492,19.924943 c 1.216075,0.530084 2.440548,1.041308 3.648228,1.590254 1.053253,0.478751 2.150004,1.253039 3.274052,1.590253 0.915821,0.274746 1.883966,0.380716 2.619243,0.748355"
         id="path3825" />
      <path
         style="fill:none;stroke:#46ff90;stroke-width:0.264583px;stroke-linecap:round;stroke-linejoin:miter;stroke-opacity:1;paint-order:stroke fill markers"
         d="m 35.500074,21.187792 c 1.481119,0.748354 2.977586,1.467077 4.443357,2.245063 0.758613,0.40265 3.174608,2.15152 4.256267,2.15152"
         id="path3829" />
      <path
         style="fill:none;stroke:#46ff90;stroke-width:0.264583px;stroke-linecap:round;stroke-linejoin:miter;stroke-opacity:1;paint-order:stroke fill markers"
         d="m 33.722733,18.194373 c 0.243671,0.447998 1.511977,0.857167 1.917658,1.262848 0.08832,0.08832 0.160281,0.173685 0.280633,0.233861"
         id="path3833" />
      <path
         style="fill:none;stroke:#46ff90;stroke-width:0.264583px;stroke-linecap:round;stroke-linejoin:miter;stroke-opacity:1;paint-order:stroke fill markers"
         d="m 32.740518,19.64431 c 0.304382,0.832273 0.862488,0.722174 1.216075,1.07576 0.03179,0.03179 0.205039,0.01795 0.280633,0.09354 0.07016,0.07016 0.257246,0.02339 0.327406,0.09354"
         id="path3841" />
      <path
         style="fill:none;stroke:#46ff90;stroke-width:0.264583px;stroke-linecap:round;stroke-linejoin:miter;stroke-opacity:1;paint-order:stroke fill markers"
         d="m 45.509317,24.321527 c 0.969597,0.235346 2.09522,0.720204 2.899876,1.122532 0.137811,0.06891 0.06384,-0.02971 0.140316,0.04677"
         id="path3843" />
      <path
         style="fill:none;stroke:#46ff90;stroke-width:0.264583px;stroke-linecap:round;stroke-linejoin:miter;stroke-opacity:1;paint-order:stroke fill markers"
         d="m 30.214818,17.446018 0.140317,0.04677"
         id="path3847" />
      <path
         style="fill:none;stroke:#46ff90;stroke-width:0.264583px;stroke-linecap:round;stroke-linejoin:miter;stroke-opacity:1;paint-order:stroke fill markers"
         d="m 31.185342,17.960512 0.362484,0.04677"
         id="path3851" />
      <path
         style="fill:none;stroke:#46ff90;stroke-width:0.264583px;stroke-linecap:round;stroke-linejoin:miter;stroke-opacity:1;paint-order:stroke fill markers"
         d="m 32.202636,18.159294 0.385871,0.01169"
         id="path3853" />
      <path
         style="fill:none;stroke:#46ff90;stroke-width:0.264583px;stroke-linecap:round;stroke-linejoin:miter;stroke-opacity:1;paint-order:stroke fill markers"
         d="m 30.191434,18.135907 0.09354,0.280634"
         id="path3855" />
      <path
         style="fill:none;stroke:#46ff90;stroke-width:0.264583px;stroke-linecap:round;stroke-linejoin:miter;stroke-opacity:1;paint-order:stroke fill markers"
         d="m 31.922003,18.9895 0.491109,0.09354"
         id="path3857" />
    </g>
    <g
       id="g5604"
       transform="matrix(-2.4525005,0.38332076,-0.38332076,-2.4525005,327.23274,40.577838)"
       style="stroke:#46ff90;stroke-linecap:round;stroke-opacity:1;paint-order:stroke fill markers">
      <path
         style="fill:none;stroke:#46ff90;stroke-width:0.264583px;stroke-linecap:round;stroke-linejoin:miter;stroke-opacity:1;paint-order:stroke fill markers"
         d="m 76.753126,5.0981662 c -1.748297,1.1587369 -2.230509,1.4571081 -3.741774,1.683798 -0.537057,0.080559 -1.070311,-0.00198 -1.590254,0.1870887 -0.491472,0.1787171 -1.012357,0.3207534 -1.496709,0.5144937 -0.158419,0.063368 -0.188383,0.233861 -0.327406,0.233861"
         id="path4082" />
      <path
         style="fill:none;stroke:#46ff90;stroke-width:0.264583px;stroke-linecap:round;stroke-linejoin:miter;stroke-opacity:1;paint-order:stroke fill markers"
         d="M 78.062745,4.6772165 C 77.333035,4.3301591 75.729514,7.816004 74.741923,8.6060787 74.490307,8.8073713 73.441535,9.4466583 73.104895,9.4947498 72.800871,9.538182 72.474941,9.5109741 72.169453,9.5415221 71.73801,9.5846663 71.322744,9.822155 70.906605,9.822155"
         id="path4084" />
      <path
         style="fill:none;stroke:#46ff90;stroke-width:0.264583px;stroke-linecap:round;stroke-linejoin:miter;stroke-opacity:1;paint-order:stroke fill markers"
         d="m 78.062745,4.6772165 c -0.670401,1.1693041 -1.317739,2.3521376 -2.011201,3.5079128 -0.142558,0.2375945 -0.396158,0.2695905 -0.561266,0.4677216 -0.302323,0.3627869 -0.678151,0.9788546 -1.122534,1.1693041 -0.371552,0.1592368 -0.782662,0.310481 -1.169303,0.420949 -0.121422,0.03469 -0.312163,0.0033 -0.420949,0.04677 -0.161949,0.06478 -0.131543,0.122766 -0.18709,0.23386"
         id="path4086" />
      <path
         style="fill:none;stroke:#46ff90;stroke-width:0.264583px;stroke-linecap:round;stroke-linejoin:miter;stroke-opacity:1;paint-order:stroke fill markers"
         d="m 78.203062,5.6594321 c -1.646495,2.4886076 -2.037729,2.7490748 -2.151518,4.9110779 -0.01053,0.200211 -0.02601,0.582043 0.09354,0.701582"
         id="path4088" />
      <path
         style="fill:none;stroke:#46ff90;stroke-width:0.264583px;stroke-linecap:round;stroke-linejoin:miter;stroke-opacity:1;paint-order:stroke fill markers"
         d="m 78.062745,4.6772165 c 0.07795,1.0913504 0.219078,2.1800206 0.233863,3.2740518 0.0013,0.091082 -0.234477,0.1883196 -0.280633,0.2806329 -0.165611,0.3312211 0.01543,0.7020515 -0.09355,1.0289879 -0.06248,0.1874448 -0.202706,0.265095 -0.280633,0.4209494 -0.03978,0.079568 -0.06335,0.2368116 -0.09354,0.3274055"
         id="path4090" />
      <path
         style="fill:none;stroke:#46ff90;stroke-width:0.264583px;stroke-linecap:round;stroke-linejoin:miter;stroke-opacity:1;paint-order:stroke fill markers"
         d="m 80.354582,7.4835466 c 0.548883,2.0048865 -1.656842,1.133362 -2.245064,1.917659 -0.03418,0.045574 -0.03632,0.1117047 -0.09354,0.1403165 -0.04139,0.020696 -0.167585,0.03503 -0.18709,0.093544 -0.103666,0.3109968 0.304268,-0.1132398 -0.280633,0.3741779"
         id="path4092" />
      <path
         style="fill:none;stroke:#46ff90;stroke-width:0.264583px;stroke-linecap:round;stroke-linejoin:miter;stroke-opacity:1;paint-order:stroke fill markers"
         d="m 79.980405,6.220698 c 0.105529,2.3946813 -5.518189,0.7647284 -7.436776,1.4499373 -0.212243,0.075802 -0.96485,0.5612659 -1.075758,0.5612659"
         id="path4094" />
      <path
         style="fill:none;stroke:#46ff90;stroke-width:0.264583px;stroke-linecap:round;stroke-linejoin:miter;stroke-opacity:1;paint-order:stroke fill markers"
         d="m 78.296608,10.851143 c -1.182489,1.884075 -1.309622,1.957307 -1.309622,3.180507"
         id="path4096" />
      <path
         style="fill:none;stroke:#46ff90;stroke-width:0.264583px;stroke-linecap:round;stroke-linejoin:miter;stroke-opacity:1;paint-order:stroke fill markers"
         d="m 70.906605,9.822155 c -2.478926,1.231667 -4.972804,2.433683 -7.436776,3.695001 -0.433626,0.221976 -0.761217,0.579668 -1.216075,0.795127 -0.682983,0.323518 -2.055503,0.605565 -2.57247,1.122532 -0.299225,0.299226 -0.329057,0.65922 -0.46772,1.028988 -0.105413,0.281093 -0.257839,0.772331 -0.467722,0.982215 -0.0013,0.0013 -0.313936,0.107013 -0.280633,0.140317 0.05874,0.05874 0.117472,-0.269754 0.187089,-0.374178 0.104495,-0.156744 0.335778,-0.174289 0.514493,-0.233861 0.59999,-0.199996 1.299684,-0.436306 1.824114,-0.795126 0.824955,-0.564444 0.445384,-0.3969 1.403165,-1.169305 0.533889,-0.430556 1.151956,-0.755381 1.777344,-1.028987 0.51585,-0.225686 0.231732,-0.08767 0.795126,-0.187089 0.883943,-0.15599 1.876353,-0.415422 2.61924,-0.935443 0.399872,-0.27991 0.557225,-0.61214 0.841899,-0.982216 0.264337,-0.343636 1.238456,-1.37904 1.590254,-1.637026 0.264943,-0.194291 0.588669,-0.3009475 0.888672,-0.420949 z"
         id="path4104" />
      <path
         style="fill:none;stroke:#46ff90;stroke-width:0.264583px;stroke-linecap:round;stroke-linejoin:miter;stroke-opacity:1;paint-order:stroke fill markers"
         d="m 76.145087,8.9334839 c -0.935442,1.4655281 -1.848619,2.9455081 -2.806329,4.3965831 -0.211696,0.320751 -1.056196,0.971036 -1.403165,1.169305 -0.254495,0.145425 -0.550608,0.237016 -0.748355,0.467721 -0.498833,0.581972 -0.827474,1.29181 -1.262849,1.917659 -0.498276,0.716273 -1.233773,1.201878 -1.777343,1.870887 -0.296971,0.365502 -0.536716,0.758999 -0.88867,1.07576 -0.16501,0.148507 -2.057976,1.595662 -2.057976,1.683798 0,0.155907 0.311814,0 0.467722,0 0.465955,0 0.875681,-0.381267 1.169305,-0.701583 0.432236,-0.471532 0.694558,-1.063245 1.169302,-1.496709 0.502637,-0.458928 1.02843,-0.602703 1.543484,-0.982216 0.424527,-0.31281 0.83334,-0.761348 1.169302,-1.169304 0.474221,-0.57584 0.722826,-1.249118 1.122532,-1.870887 0.156824,-0.243945 0.357989,-0.457433 0.514496,-0.701582 0.682894,-1.065318 1.242369,-2.22092 1.870884,-3.320824 0.184902,-0.323574 0.356695,-0.675359 0.561266,-0.982215 0.08927,-0.133904 0.09838,-0.3026625 0.18709,-0.4209497"
         id="path4110" />
      <path
         style="fill:none;stroke:#46ff90;stroke-width:0.264583px;stroke-linecap:round;stroke-linejoin:miter;stroke-opacity:1;paint-order:stroke fill markers"
         d="m 70.251795,14.499372 c -1.73057,1.340802 -3.418109,2.739068 -5.191712,4.022406 -0.275193,0.199124 -1.13706,0.254295 -1.496708,0.374177 -0.2114,0.07047 -0.283165,0.219115 -0.467723,0.280633 -0.03307,0.01103 -0.118194,0.02212 -0.09354,0.04677 0.06972,0.06972 0.192437,-0.04945 0.280633,-0.09354 0.09354,-0.04677 0.187087,-0.09354 0.280633,-0.140316 0.311814,-0.187089 0.611431,-0.396203 0.935442,-0.561266 1.672188,-0.85187 1.486906,-0.541063 3.133736,-1.543482 1.034161,-0.62949 1.758698,-1.762052 2.525696,-2.666013 1.119389,-1.319279 0.578488,-0.623498 1.403165,-1.683798 0.109755,-0.141114 0.634929,-0.82874 0.795129,-1.028988 0.51104,-0.638801 0.629666,-0.388506 0.233857,-0.982219"
         id="path4112" />
      <path
         style="fill:none;stroke:#46ff90;stroke-width:0.264583px;stroke-linecap:round;stroke-linejoin:miter;stroke-opacity:1;paint-order:stroke fill markers"
         d="m 76.238631,12.722029 c -0.732764,0.919853 -1.451547,1.851019 -2.198291,2.759558 -0.816774,0.993741 -1.84001,1.745455 -2.525696,2.853102 -0.235813,0.380926 -0.396174,0.850118 -0.561266,1.262849 -0.210188,0.525469 -0.672777,1.539867 -1.169305,1.870886 -0.535469,0.356979 -1.109205,0.862015 -1.403165,1.449938 -0.21735,0.434696 -0.444399,0.912507 -0.514495,1.403165 -0.05232,0.366272 0,0.795855 0,1.169304 0,0.02941 0.02305,0.303672 0.04677,0.327405 0.01103,0.01103 0.03575,-0.01103 0.04677,0 0.0083,0.0082 0.146515,0.41475 0.23386,0.327405 0.05181,-0.05181 -0.03794,-0.615561 0,-0.748355 0.09022,-0.315789 0.301201,-0.598134 0.514492,-0.841898 0.378159,-0.43218 0.882664,-0.806712 1.356395,-1.122533 0.224062,-0.149374 0.434017,-0.249221 0.654809,-0.420949 0.148191,-0.115259 0.275651,-0.255295 0.42095,-0.374177 0.209674,-0.171552 0.445521,-0.232973 0.608039,-0.467722 0.136617,-0.197335 0.460541,-0.795191 0.514492,-1.028988 0.01754,-0.07596 -0.0065,-0.156176 0,-0.23386 0.03109,-0.37304 0.09957,-0.949566 0.327406,-1.262849 0.07781,-0.106989 0.193993,-0.180662 0.280633,-0.280633 0.280472,-0.323622 0.829326,-0.928301 0.982216,-1.356393 0.276037,-0.772902 0.24026,-1.590342 0.420949,-2.38538 0.07562,-0.332742 0.211773,-0.851315 0.327406,-1.169304 0.05812,-0.159829 0.09883,-0.414165 0.187087,-0.561267 0.104571,-0.174281 0.09355,-0.0248 0.09355,-0.140316"
         id="path4128" />
      <path
         style="fill:none;stroke:#46ff90;stroke-width:0.264583px;stroke-linecap:round;stroke-linejoin:miter;stroke-opacity:1;paint-order:stroke fill markers"
         d="m 73.245212,16.978296 c -0.218268,1.512301 -0.497094,3.017092 -0.65481,4.536901 -0.01804,0.173821 0.403434,1.021723 0.514493,1.216076 0.05021,0.08785 0.195138,0.187089 0.140317,0.187089 -0.299106,0 -0.250672,-1.291082 -0.23386,-1.403165 0.06022,-0.401481 0.354904,-0.745583 0.561266,-1.07576 0.208108,-0.332972 0.342003,-0.678175 0.608039,-0.982216 0.09465,-0.108175 0.225766,-0.178994 0.327403,-0.280633 0.257104,-0.257101 0.123968,-0.166365 0.280633,-0.420949 0.255429,-0.41507 0.495202,-0.814138 0.561269,-1.309621 0.04069,-0.305162 0.04704,-1.075209 -0.09355,-1.356393 -0.09091,-0.181817 -0.214646,-0.345356 -0.327404,-0.514494 -0.06066,-0.09098 -0.185325,-0.183559 -0.233862,-0.280633 -0.01394,-0.02789 0.0076,-0.06329 0,-0.09354 -0.01691,-0.06764 -0.07987,-0.118719 -0.09354,-0.187089 -0.03876,-0.193814 -0.06536,-0.434136 -0.187089,-0.608038 -0.06322,-0.09031 -0.161267,-0.150894 -0.23386,-0.23386 -0.416804,-0.476346 -0.42095,-0.546845 -0.42095,-1.216077"
         id="path4130" />
      <path
         style="fill:none;stroke:#46ff90;stroke-width:0.264583px;stroke-linecap:round;stroke-linejoin:miter;stroke-opacity:1;paint-order:stroke fill markers"
         d="m 77.220846,15.013865 c -0.218268,1.013397 -0.40006,2.035344 -0.654809,3.040191 -0.02911,0.11482 -0.377029,0.612317 -0.467723,0.748355 -0.30104,0.451561 -0.374176,1.153158 -0.374176,1.683798 0,0.206729 -0.0389,0.462043 0.04677,0.65481 0.07079,0.159279 0.203473,0.313406 0.280633,0.467722 0.03277,0.06553 -0.06439,0.06135 -0.09355,0.04677 -0.09155,-0.04577 -0.129299,-0.110038 -0.187087,-0.187089 -0.391546,-0.522059 -0.273397,-0.762292 -0.327406,-1.356392 -0.07732,-0.850516 0.07148,-1.753522 0.327406,-2.572469 0.106405,-0.340501 0.279485,-0.635013 0.374176,-0.982216 0.284679,-1.043825 -0.01942,-0.175607 0.327406,-1.216076 0.157065,-0.471195 0.331899,-0.927787 0.46772,-1.403165 0.02564,-0.08976 0.12088,-0.261197 0.18709,-0.327406 0.09677,-0.09677 -0.0038,0.147883 0.09354,-0.04677 0.01558,-0.03118 0.110239,-0.07738 0.09355,-0.04677 -0.09734,0.178457 -0.21827,0.342996 -0.327406,0.514494"
         id="path4134" />
      <path
         style="fill:none;stroke:#46ff90;stroke-width:0.264583px;stroke-linecap:round;stroke-linejoin:miter;stroke-opacity:1;paint-order:stroke fill markers"
         d="m 77.548255,10.009244 c 0.124724,0.685992 0.229875,1.375832 0.374174,2.057975 0.02757,0.130323 0.103722,0.246095 0.140316,0.374177 0.212191,0.742668 0.244165,1.540503 0.420949,2.291837 0.06115,0.25988 0.107117,0.27457 0.18709,0.514493 0.07382,0.22147 0.07597,0.561499 0.04677,0.795127 -0.02923,0.233793 -0.148807,0.42512 -0.187089,0.65481 -0.03403,0.204173 0.04845,0.464371 -0.04677,0.654811 -0.03439,0.06878 -0.06851,-0.111993 -0.140316,-0.327405 -0.104468,-0.313409 -0.265017,-0.611027 -0.327403,-0.935444 -0.110988,-0.577126 -0.01701,-0.599658 -0.04677,-1.07576 0.127463,-0.20392 -0.07776,-0.3409 -0.09354,-0.514493 -0.0113,-0.124214 0.01035,-0.249883 0,-0.374178 -0.01574,-0.189014 -0.07712,-0.372309 -0.09355,-0.561266 -0.04467,-0.513671 -0.0772,-1.038605 -0.140316,-1.543481 -0.05359,-0.428711 0.06994,-0.03978 -0.04677,-0.467722 -0.04601,-0.168716 -0.144896,-0.345718 -0.187089,-0.514494 -0.09325,-0.372999 -0.23386,-0.723208 -0.23386,-1.1225318 0,-0.1735092 0.0173,-0.2684766 0.09354,-0.4209494 0.02204,-0.044097 0.02907,-0.1863325 0.04677,-0.1403165 0.0832,0.2163242 0.155906,0.4365403 0.23386,0.6548107"
         id="path4140" />
      <path
         style="fill:none;stroke:#46ff90;stroke-width:0.264583px;stroke-linecap:round;stroke-linejoin:miter;stroke-opacity:1;paint-order:stroke fill markers"
         d="m 76.332177,6.454559 c -0.342998,2.1671103 -0.661128,4.338303 -1.028988,6.501331 -0.1396,0.820838 -0.142635,-0.01199 -0.18709,0.65481 -0.02125,0.318666 -0.05821,1.252422 0,1.543482 0.05374,0.268723 0.04677,-0.01342 0.04677,0.140316"
         id="path4142" />
      <path
         style="fill:none;stroke:#46ff90;stroke-width:0.264583px;stroke-linecap:round;stroke-linejoin:miter;stroke-opacity:1;paint-order:stroke fill markers"
         d="M 60.523183,10.757598 C 62.190489,9.2293968 63.467098,7.7765557 65.574579,7.2496859 66.632224,6.985274 67.9984,7.090439 69.082491,7.1561414 c 1.045318,0.063353 2.086821,0.1496991 3.133735,0.1870887 0.40413,0.014433 0.812514,-0.025223 1.216075,0 0.301464,0.018841 0.58814,0.046772 0.888672,0.046772"
         id="path4146" />
      <path
         style="fill:none;stroke:#46ff90;stroke-width:0.264583px;stroke-linecap:round;stroke-linejoin:miter;stroke-opacity:1;paint-order:stroke fill markers"
         d="m 78.203062,5.6594321 c 0.559524,2.4001241 1.460063,3.4910368 0.467722,5.1449379 -0.21667,0.361116 -0.655622,1.07941 -0.748355,1.49671 -0.06856,0.308516 -0.109866,0.760291 -0.04677,1.07576 0.0578,0.288982 0.04677,-0.13875 0.04677,0.09354"
         id="path4148" />
      <path
         style="fill:none;stroke:#46ff90;stroke-width:0.264583px;stroke-linecap:round;stroke-linejoin:miter;stroke-opacity:1;paint-order:stroke fill markers"
         d="m 68.755085,10.056016 c 0.701582,-1.2004858 1.448932,-2.3753694 2.104747,-3.601457 0.14895,-0.2784716 0.01024,-0.6906323 0.09355,-0.9822156 0.217334,-0.7606734 0.918173,-1.0905109 1.543481,-1.403165 0.09723,-0.048617 0.179903,-0.1367245 0.280633,-0.1870885"
         id="path4152" />
      <path
         style="fill:none;stroke:#46ff90;stroke-width:0.264583px;stroke-linecap:round;stroke-linejoin:miter;stroke-opacity:1;paint-order:stroke fill markers"
         d="m 74.320973,7.3900021 c 2.128015,-0.202121 -0.742775,-2.2176896 -0.233862,-3.133735 0.06336,-0.1140399 0.364379,-0.4160496 0.467722,-0.4677217 0.214979,-0.1074891 0.08142,0.012126 0.18709,-0.093544"
         id="path4154" />
      <path
         style="fill:none;stroke:#46ff90;stroke-width:0.264583px;stroke-linecap:round;stroke-linejoin:miter;stroke-opacity:1;paint-order:stroke fill markers"
         d="m 64.54559,18.942727 c -0.623628,0.701583 -1.21431,1.433899 -1.870887,2.104748 -0.06897,0.07047 -0.191278,0.05185 -0.280633,0.09354 -0.145457,0.06788 -0.288975,0.142494 -0.420949,0.233861 -0.363734,0.251816 -0.280633,0.595764 -0.280633,0.982216 0,0.01559 -0.0031,-0.03148 0,-0.04677 0.01259,-0.06303 0.01487,-0.131276 0.04677,-0.187088 0.06564,-0.114862 0.181073,-0.193518 0.280633,-0.280633 0.41399,-0.362243 0.900742,-0.715634 1.403164,-0.935443 0.320331,-0.140145 0.648827,-0.09269 0.982216,-0.140317 0.364339,-0.05205 0.721259,-0.192008 1.075758,-0.280633 0.198943,-0.04973 0.406959,-0.05333 0.608039,-0.09354 0.49071,-0.09814 0.66034,-0.414576 0.888672,-0.795127 0.233617,-0.389362 0.187087,-1.388125 0.187087,-1.870887 0,-0.140316 0,-0.280633 0,-0.420949 0,-0.04677 0.04677,-0.140317 0,-0.140317 -0.01172,0 -0.08509,0.225407 -0.09354,0.233861 -0.05621,0.05621 -0.160478,0.0162 -0.23386,0.04677 -0.203864,0.08494 -0.347075,0.161047 -0.514496,0.280633 -0.228197,0.163 -0.387072,0.395542 -0.608036,0.561266 -0.133032,0.09977 -0.283559,0.18904 -0.420949,0.280633 -0.06465,0.0431 -0.197819,0.151046 -0.233863,0.187089 -0.01103,0.01103 0.01394,0.0398 0,0.04677 -0.02789,0.01394 -0.06396,-0.0099 -0.09354,0 -0.07643,0.02548 -0.148413,0.187089 -0.23386,0.187089 -0.06428,0 -0.124728,-0.03118 -0.18709,-0.04677 z"
         id="path4269" />
      <path
         style="fill:none;stroke:#46ff90;stroke-width:0.264583px;stroke-linecap:round;stroke-linejoin:miter;stroke-opacity:1;paint-order:stroke fill markers"
         d="m 68.848628,18.755639 c -0.311814,1.07576 -0.643213,2.146034 -0.935442,3.227279 -0.08358,0.309268 0.08703,0.28845 -0.140317,0.561266 -0.105561,0.126672 -0.134469,0.105967 -0.280633,0.233861 -0.582983,0.51011 0.167032,-0.120259 -0.327406,0.374177 -0.07167,0.07167 -0.374176,0.16586 -0.374176,0.280633 0,0.0493 0.100875,-0.01719 0.140316,-0.04677 0.16804,-0.126028 0.367133,-0.273588 0.514493,-0.420949 0.08806,-0.08806 0.145804,-0.239346 0.233863,-0.327405 0.03975,-0.03975 0.100568,-0.0538 0.140316,-0.09354 0.188865,-0.188866 0.331473,-0.454843 0.561266,-0.608038 0.241065,-0.160709 0.520377,-0.301231 0.608036,-0.608038 0.121719,-0.426015 -0.1085,-0.886771 -0.233859,-1.262849 -0.06571,-0.197132 -0.09132,-0.412045 -0.140317,-0.608038 -0.133308,-0.533227 -0.147598,-0.787846 0.280633,-1.216076"
         id="path4271" />
      <path
         style="fill:none;stroke:#46ff90;stroke-width:0.264583px;stroke-linecap:round;stroke-linejoin:miter;stroke-opacity:1;paint-order:stroke fill markers"
         d="m 65.621349,13.657473 c -0.514493,0.951034 -0.950553,1.948886 -1.543481,2.853102 -0.121571,0.185397 -0.326581,-0.07057 -0.467723,0 -0.02641,0.0132 -0.09755,0.336375 0,0.280633 0.427159,-0.244091 0.824151,-0.41967 1.309622,-0.561266 0.161073,-0.04698 1.513586,-0.271954 1.590254,-0.374177 0.181321,-0.241762 0.209777,-0.605247 0.280633,-0.888672 0.113302,-0.453214 0.618064,-1.113625 0.982215,-1.356393 0.261845,-0.174563 0.590799,-0.230987 0.888672,-0.280633 0.388961,-0.06483 -0.123399,-0.0191 0.280633,-0.140316 0.347202,-0.104161 0.737193,-0.121005 1.075759,-0.233861 0.07434,-0.02478 0.116427,-0.151758 0.187089,-0.187088 0.0441,-0.02205 0.100875,-0.01719 0.140317,-0.04677 0.185007,-0.138756 0.06387,-0.52355 0.09354,-0.701582 0.0258,-0.154807 0.06951,-0.279343 0.140317,-0.42095 0.141523,-0.283045 0.342037,-0.501861 0.467722,-0.795127 0.100224,-0.233857 0.166883,-0.474085 0.280633,-0.701582 0.132498,-0.2649964 -0.01744,0.06972 0.04677,-0.1870888 0.02289,-0.091598 0.101889,-0.1570053 0.140317,-0.2338607 0.01394,-0.027889 -0.01394,-0.065655 0,-0.093545 0.03921,-0.078419 0.09452,-0.1407715 0.09354,-0.1403164 C 71.368,9.5600626 71.140456,9.6974316 70.906596,9.8221575"
         id="path5186" />
      <path
         style="fill:none;stroke:#46ff90;stroke-width:0.264583px;stroke-linecap:round;stroke-linejoin:miter;stroke-opacity:1;paint-order:stroke fill markers"
         d="m 69.222807,13.142979 c -0.498904,0.795127 -0.989862,1.595294 -1.496711,2.38538 -0.05103,0.07955 -0.139792,0.140317 -0.23386,0.140317 -0.01558,0 -0.06236,0 -0.04677,0 0.476729,0 0.908095,-0.467431 1.309622,-0.654811 0.345749,-0.16135 0.75489,-0.201852 1.122531,-0.280632 0.22496,-0.04821 0.352994,-0.119133 0.514496,-0.280633 0.04917,-0.04917 0.356163,-0.299807 0.187087,-0.187089 -0.111591,0.07439 -0.218271,0.155907 -0.327404,0.233861"
         id="path5188" />
      <path
         style="fill:none;stroke:#46ff90;stroke-width:0.264583px;stroke-linecap:round;stroke-linejoin:miter;stroke-opacity:1;paint-order:stroke fill markers"
         d="m 70.251798,14.499372 c 0.28063,-0.561266 0.594707,-1.107022 0.841896,-1.683798 0.103378,-0.241221 -0.06291,-0.643593 -0.09355,-0.888672 -0.02701,-0.216121 -0.02275,-0.418799 -0.327403,-0.327405 -0.158536,0.04756 -0.548669,0.307838 -0.654812,0.374178 -0.746564,0.466602 -0.936813,0.796994 -1.449938,1.496709 -0.146071,0.199191 -0.374176,0.398233 -0.374176,0.608038"
         id="path5190" />
      <path
         style="fill:none;stroke:#46ff90;stroke-width:0.264583px;stroke-linecap:round;stroke-linejoin:miter;stroke-opacity:1;paint-order:stroke fill markers"
         d="m 71.421098,14.125194 c 1.231667,-2.697195 2.426919,-5.411318 3.695001,-8.0915844 0.299492,-0.6330177 1.01578,-1.3049041 1.683798,-1.5434815 0.121076,-0.043241 0.251036,-0.056602 0.374179,-0.093545 0.03339,-0.010017 0.0603,-0.05727 0.09354,-0.046772 0.273328,0.086314 0.530082,0.2182699 0.795126,0.3274049"
         id="path5192" />
      <path
         style="fill:none;stroke:#46ff90;stroke-width:0.264583px;stroke-linecap:round;stroke-linejoin:miter;stroke-opacity:1;paint-order:stroke fill markers"
         d="m 71.467871,8.231901 c -1.959592,2.542841 -2.436715,2.332899 -2.666013,4.396584 -0.01895,0.1706 -0.04677,0.302914 -0.04677,0.467722 0,0.06236 -0.06115,0.199319 0,0.187088 0.159612,-0.03192 0.311814,-0.09354 0.467722,-0.140316"
         id="path5196" />
      <path
         style="fill:none;stroke:#46ff90;stroke-width:0.264583px;stroke-linecap:round;stroke-linejoin:miter;stroke-opacity:1;paint-order:stroke fill markers"
         d="m 76.238631,4.2562671 c -3.068087,1.1266858 -3.29751,0.5146392 -4.069178,2.0579754 -0.135699,0.271399 -0.06409,-5.82e-4 -0.18709,0.3274052 -0.04641,0.1237711 -0.06511,0.7015824 -0.187086,0.7015824"
         id="path5198" />
      <path
         style="fill:none;stroke:#46ff90;stroke-width:0.264583px;stroke-linecap:round;stroke-linejoin:miter;stroke-opacity:1;paint-order:stroke fill markers"
         d="m 63.610145,11.038231 c 3.407561,-3.3427637 2.359155,-3.3675957 4.72399,-3.3675957 0.140317,0 0.280633,0 0.42095,0 0.06236,0 0.13131,-0.027889 0.187089,0 0.01971,0.00986 0.03118,0.031181 0.04677,0.046772 0.202679,0 0.405361,0 0.608039,0"
         id="path5200" />
      <path
         style="fill:none;stroke:#46ff90;stroke-width:0.264583px;stroke-linecap:round;stroke-linejoin:miter;stroke-opacity:1;paint-order:stroke fill markers"
         d="m 65.2004,11.318864 c -0.841899,0.280633 -1.682356,0.565632 -2.525697,0.841899 -0.552781,0.181084 -1.098746,0.327138 -1.590254,0.654811 -0.258268,0.172178 -0.523775,0.458441 -0.561266,0.420949 -0.07437,-0.07437 0.693547,-0.327405 0.795128,-0.327405 0.239477,0 0.560147,-0.05222 0.795126,0 0.355746,0.07905 0.711917,0.181883 1.075759,0.233861 0.223369,0.03191 0.475797,0 0.701585,0 0.109133,0 0.220691,0.02287 0.327403,0 0.606859,-0.130041 0.752533,-0.321394 1.169305,-0.65481 0.206944,-0.165556 0.465902,-0.278814 0.654809,-0.467722 0.05512,-0.05512 0.0852,-0.131967 0.140317,-0.187089 0.1841,-0.184099 0.09501,-0.002 0.233862,-0.187089 0.08535,-0.113798 0.19462,-0.212722 0.280633,-0.327405 0.04183,-0.05578 0.05171,-0.131309 0.09354,-0.187088 0.236299,-0.315067 0.798121,-0.672397 1.122532,-0.888672 0.12302,-0.08201 0.407696,-0.157075 0.561266,-0.23386 0.08482,-0.042412 0.188629,0.02377 0.280633,0.04677"
         id="path5395" />
      <path
         style="fill:none;stroke:#46ff90;stroke-width:0.264583px;stroke-linecap:round;stroke-linejoin:miter;stroke-opacity:1;paint-order:stroke fill markers"
         d="M 65.2004,11.318864 C 70.717129,8.2912579 69.111788,8.5593064 72.917808,8.5593064"
         id="path5397" />
    </g>
  </g>
</svg>
